<svg width="138" height="32" viewBox="18 10 138 36" fill="none" xmlns="http://www.w3.org/2000/svg">
<g clip-path="url(#clip0_523_5204)">
<path d="M45.9904 23.9833C44.0858 16.0127 36.8953 10.0801 28.3071 10.0801C18.2658 10.0801 10.125 18.1847 10.125 28.1814C10.125 36.7314 16.0801 43.8939 24.0902 45.7861L45.9904 23.9833V23.9833ZM21.5759 21.4801H35.0383V34.8827H21.5759V21.4801Z" fill="#F6BE00"/>
<path d="M35.0381 34.8827H40.5814C43.6421 34.8827 46.1248 37.3543 46.1248 40.4014C46.1248 43.4485 43.6421 45.9201 40.5814 45.9201C37.5207 45.9201 35.0381 43.4485 35.0381 40.4014V34.8827Z" fill="#BBBBBB"/>
</g>
<path d="M68.2662 30.7524C67.4396 30.7524 66.7225 30.6551 66.1147 30.4606C65.5191 30.2662 65.0512 29.9137 64.7108 29.4031C64.3826 28.8926 64.2185 28.1633 64.2185 27.2152V25.1732H67.0081V27.3428C67.0081 27.6953 67.1054 27.9628 67.2999 28.1451C67.5065 28.3396 67.7861 28.4368 68.1386 28.4368H70.1259V30.7524H68.2662ZM65.6589 27.1241C64.4556 27.1241 63.4041 26.9174 62.5047 26.5041C61.6173 26.0787 60.882 25.5257 60.2985 24.845C59.7151 24.1521 59.2775 23.4046 58.9858 22.6023C58.7062 21.8001 58.5664 21.0283 58.5664 20.2868V19.8857C58.5664 19.0591 58.7123 18.2447 59.004 17.4425C59.3079 16.6281 59.7576 15.8927 60.3532 15.2363C60.9488 14.58 61.6903 14.0573 62.5776 13.6683C63.4649 13.2672 64.492 13.0667 65.6589 13.0667C66.8258 13.0667 67.8529 13.2672 68.7402 13.6683C69.6276 14.0573 70.369 14.58 70.9646 15.2363C71.5602 15.8927 72.01 16.6281 72.3139 17.4425C72.6177 18.2447 72.7697 19.0591 72.7697 19.8857V20.2868C72.7697 21.0283 72.6238 21.8001 72.3321 22.6023C72.0404 23.4046 71.6028 24.1521 71.0193 24.845C70.4359 25.5257 69.6944 26.0787 68.7949 26.5041C67.9076 26.9174 66.8623 27.1241 65.6589 27.1241ZM65.6589 24.3345C66.291 24.3345 66.8562 24.2251 67.3546 24.0063C67.8651 23.7875 68.2966 23.4836 68.6491 23.0946C69.0137 22.7057 69.2872 22.2559 69.4696 21.7454C69.6519 21.2349 69.743 20.6879 69.743 20.1045C69.743 19.4846 69.6458 18.9193 69.4513 18.4088C69.269 17.8862 68.9955 17.4364 68.6309 17.0596C68.2784 16.6706 67.8529 16.3728 67.3546 16.1662C66.8562 15.9596 66.291 15.8563 65.6589 15.8563C65.0269 15.8563 64.4616 15.9596 63.9633 16.1662C63.4649 16.3728 63.0334 16.6706 62.6688 17.0596C62.3163 17.4364 62.0489 17.8862 61.8665 18.4088C61.6842 18.9193 61.593 19.4846 61.593 20.1045C61.593 20.6879 61.6842 21.2349 61.8665 21.7454C62.0489 22.2559 62.3163 22.7057 62.6688 23.0946C63.0334 23.4836 63.4649 23.7875 63.9633 24.0063C64.4616 24.2251 65.0269 24.3345 65.6589 24.3345Z" fill="#0D0E13"/>
<path d="M76.9734 26.7776L73.6916 13.4678H76.7729L79.3437 24.772L78.7056 24.3527H80.3647L79.6537 24.772L81.641 13.9601H84.1207L81.5134 26.7776H76.9734ZM84.9047 26.7776L82.0968 13.9601H84.7041L87.0014 24.772L86.3086 24.3527H87.8948L87.2931 24.772L89.5358 13.4678H92.453L89.5358 26.7776H84.9047Z" fill="#0D0E13"/>
<path d="M94.3362 26.7776V13.4678H97.2535V26.7776H94.3362ZM96.8888 26.7776V24.298H102.705V26.7776H96.8888ZM96.8888 21.2531V18.7735H102.286V21.2531H96.8888ZM96.8888 15.9474V13.4678H102.577V15.9474H96.8888Z" fill="#0D0E13"/>
<path d="M105.162 26.7776V13.3584H108.152V26.7776H105.162ZM113.239 26.7776L109.337 21.0526H112.619L116.703 26.7776H113.239ZM107.35 22.5112V20.1592H110.632C111.069 20.1592 111.446 20.0741 111.762 19.9039C112.09 19.7216 112.339 19.4724 112.51 19.1564C112.692 18.8282 112.783 18.4514 112.783 18.0259C112.783 17.6005 112.692 17.2298 112.51 16.9137C112.339 16.5856 112.09 16.3364 111.762 16.1662C111.446 15.9839 111.069 15.8927 110.632 15.8927H107.35V13.3584H110.395C111.501 13.3584 112.461 13.5285 113.275 13.8689C114.09 14.1971 114.716 14.6894 115.153 15.3457C115.591 16.0021 115.81 16.8287 115.81 17.8254V18.1171C115.81 19.1017 115.585 19.9221 115.135 20.5785C114.698 21.2227 114.072 21.7089 113.257 22.0371C112.455 22.3532 111.501 22.5112 110.395 22.5112H107.35Z" fill="#0D0E13"/>
<path d="M120.768 26.7776V15.7104H123.758V26.7776H120.768ZM117.03 16.075V13.4678H127.514V16.075H117.03Z" fill="#0D0E13"/>
<path d="M132.036 21.7272L128.152 13.4678H131.215L134.005 19.6487L133.476 19.4846H135.008L134.442 19.6487L136.959 13.4678H139.858L136.284 21.7272H132.036ZM132.692 26.7776V21.3078H135.628V26.7776H132.692Z" fill="#0D0E13"/>
<path d="M58.6545 42.7312V34.9672H60.3562V42.7312H58.6545ZM60.1435 42.7312V41.2848H63.5363V42.7312H60.1435ZM60.1435 39.5086V38.0621H63.2917V39.5086H60.1435ZM60.1435 36.4136V34.9672H63.4619V36.4136H60.1435Z" fill="#0D0E13"/>
<path d="M66.9052 42.7312L69.5535 38.5939L69.5748 38.7747L67.1286 34.9672H69.043L70.5533 37.3921H70.7979L72.2869 34.9672H74.1481L71.6913 38.796L71.6594 38.6258L74.3928 42.7312H72.4677L70.7022 39.9872H70.4469L68.7665 42.7312H66.9052Z" fill="#0D0E13"/>
<path d="M81.2999 42.9333C80.598 42.9333 79.9953 42.8128 79.4918 42.5717C78.9884 42.3235 78.5772 42.0009 78.2581 41.6039C77.939 41.1997 77.7015 40.7672 77.5455 40.3063C77.3966 39.8383 77.3222 39.3845 77.3222 38.9449V38.7109C77.3222 38.2288 77.4002 37.7537 77.5561 37.2857C77.7121 36.8107 77.9497 36.3817 78.2687 35.9988C78.5949 35.6159 79.0026 35.311 79.4918 35.0841C79.9882 34.8502 80.5731 34.7332 81.2467 34.7332C81.9487 34.7332 82.5691 34.8643 83.108 35.1267C83.6469 35.389 84.0758 35.7542 84.3949 36.2222C84.7211 36.683 84.9125 37.2255 84.9693 37.8494H83.2144C83.1647 37.5375 83.0513 37.2716 82.874 37.0518C82.6967 36.8319 82.4663 36.6618 82.1827 36.5412C81.9062 36.4207 81.5942 36.3604 81.2467 36.3604C80.8993 36.3604 80.5909 36.4207 80.3214 36.5412C80.052 36.6618 79.8251 36.8319 79.6407 37.0518C79.4635 37.2716 79.3252 37.5339 79.226 37.8388C79.1338 38.1366 79.0877 38.4699 79.0877 38.8386C79.0877 39.2002 79.1338 39.5334 79.226 39.8383C79.3252 40.1361 79.467 40.3985 79.6514 40.6254C79.8428 40.8452 80.0768 41.0153 80.3533 41.1359C80.6299 41.2493 80.9454 41.306 81.2999 41.306C81.8388 41.306 82.2926 41.1749 82.6613 40.9125C83.0371 40.6502 83.264 40.2886 83.342 39.8277H85.0862C85.0224 40.3949 84.831 40.9161 84.5119 41.3911C84.1999 41.8591 83.771 42.2349 83.225 42.5185C82.6861 42.795 82.0444 42.9333 81.2999 42.9333Z" fill="#0D0E13"/>
<path d="M93.9756 42.7312V34.9672H95.7199V42.7312H93.9756ZM88.9556 42.7312V34.9672H90.6998V42.7312H88.9556ZM90.3914 39.5937V38.0621H94.2841V39.5937H90.3914Z" fill="#0D0E13"/>
<path d="M99.4403 42.7312L102.004 34.9672H104.822L107.481 42.7312H105.673L103.524 36.169L104.078 36.3923H102.706L103.28 36.169L101.185 42.7312H99.4403ZM101.387 40.8062L101.918 39.3597H104.96L105.503 40.8062H101.387Z" fill="#0D0E13"/>
<path d="M111.206 42.7312V34.9672H114.067L116.992 41.3167H117.353L117.141 41.5081V34.9672H118.778V42.7312H115.896L112.971 36.3817H112.61L112.822 36.1903V42.7312H111.206Z" fill="#0D0E13"/>
<path d="M126.915 42.9333C126.22 42.9333 125.613 42.8199 125.096 42.593C124.578 42.359 124.149 42.047 123.809 41.657C123.476 41.2671 123.228 40.8345 123.064 40.3595C122.901 39.8844 122.82 39.4093 122.82 38.9343V38.7003C122.82 38.211 122.901 37.7324 123.064 37.2645C123.228 36.7965 123.472 36.3711 123.798 35.9882C124.132 35.6053 124.543 35.3004 125.032 35.0735C125.528 34.8466 126.099 34.7332 126.744 34.7332C127.446 34.7332 128.067 34.8643 128.606 35.1267C129.145 35.3819 129.577 35.74 129.903 36.2009C130.229 36.6547 130.417 37.1829 130.467 37.7856H128.723C128.68 37.502 128.567 37.2538 128.382 37.0411C128.205 36.8284 127.975 36.6618 127.691 36.5412C127.414 36.4207 127.099 36.3604 126.744 36.3604C126.404 36.3604 126.099 36.4207 125.83 36.5412C125.567 36.6618 125.34 36.8319 125.149 37.0518C124.965 37.2716 124.823 37.5339 124.724 37.8388C124.631 38.1366 124.585 38.4663 124.585 38.8279C124.585 39.2037 124.635 39.5476 124.734 39.8596C124.841 40.1645 124.993 40.4304 125.192 40.6573C125.39 40.8771 125.635 41.0472 125.925 41.1678C126.223 41.2883 126.553 41.3486 126.915 41.3486C127.397 41.3486 127.815 41.2493 128.17 41.0508C128.524 40.8523 128.779 40.5899 128.935 40.2637L128.723 41.4549V39.6043H130.329V41.2635C129.995 41.8024 129.535 42.2172 128.946 42.5079C128.365 42.7915 127.687 42.9333 126.915 42.9333ZM126.691 39.9447V38.6897H130.967V39.9447H126.691Z" fill="#0D0E13"/>
<path d="M134.806 42.7312V34.9672H136.508V42.7312H134.806ZM136.295 42.7312V41.2848H139.688V42.7312H136.295ZM136.295 39.5086V38.0621H139.444V39.5086H136.295ZM136.295 36.4136V34.9672H139.614V36.4136H136.295Z" fill="#0D0E13"/>
<defs>
<clipPath id="clip0_523_5204">
<rect width="36" height="35.84" fill="white" transform="translate(10.125 10.0801)"/>
</clipPath>
</defs>
</svg>
