 <svg viewBox="0 0 140 56" fill="none" xmlns="http://www.w3.org/2000/svg">
    <g filter="url(#filter0_f_20_126)">
      <ellipse cx="28.125" cy="28" rx="22.5" ry="22.4" fill="url(#paint0_radial_20_126)" fill-opacity="0.2" />
    </g>
    <g clip-path="url(#clip0_20_126)">
      <path
        d="M45.9903 23.9832C44.0857 16.0126 36.8952 10.08 28.307 10.08C18.2657 10.08 10.1249 18.1846 10.1249 28.1813C10.1249 36.7314 16.08 43.8939 24.0901 45.786L45.9903 23.9832ZM21.5758 21.4801H35.0382V34.8826H21.5758V21.4801Z"
        fill="#F6BE00" />
      <path
        d="M35.0381 34.8826H40.5814C43.6421 34.8826 46.1248 37.3542 46.1248 40.4013C46.1248 43.4484 43.6421 45.92 40.5814 45.92C37.5207 45.92 35.0381 43.4484 35.0381 40.4013V34.8826Z"
        fill="url(#paint1_radial_20_126)" />
    </g>
    <path
      d="M68.2666 30.7524C67.44 30.7524 66.7229 30.6551 66.1151 30.4606C65.5195 30.2662 65.0515 29.9137 64.7112 29.4031C64.383 28.8926 64.2189 28.1633 64.2189 27.2152V25.1732H67.0085V27.3428C67.0085 27.6953 67.1057 27.9628 67.3002 28.1451C67.5069 28.3396 67.7864 28.4368 68.1389 28.4368H70.1263V30.7524H68.2666ZM65.6593 27.1241C64.4559 27.1241 63.4045 26.9174 62.505 26.5041C61.6177 26.0787 60.8823 25.5257 60.2989 24.845C59.7154 24.1521 59.2778 23.4046 58.9861 22.6023C58.7066 21.8001 58.5668 21.0283 58.5668 20.2868V19.8857C58.5668 19.0591 58.7126 18.2447 59.0044 17.4425C59.3082 16.6281 59.758 15.8927 60.3536 15.2363C60.9492 14.58 61.6906 14.0573 62.578 13.6683C63.4653 13.2672 64.4924 13.0667 65.6593 13.0667C66.8262 13.0667 67.8533 13.2672 68.7406 13.6683C69.6279 14.0573 70.3694 14.58 70.965 15.2363C71.5606 15.8927 72.0103 16.6281 72.3142 17.4425C72.6181 18.2447 72.77 19.0591 72.77 19.8857V20.2868C72.77 21.0283 72.6242 21.8001 72.3325 22.6023C72.0407 23.4046 71.6031 24.1521 71.0197 24.845C70.4363 25.5257 69.6948 26.0787 68.7953 26.5041C67.908 26.9174 66.8626 27.1241 65.6593 27.1241ZM65.6593 24.3345C66.2914 24.3345 66.8566 24.2251 67.3549 24.0063C67.8654 23.7875 68.297 23.4836 68.6495 23.0946C69.0141 22.7057 69.2876 22.2559 69.4699 21.7454C69.6522 21.2349 69.7434 20.6879 69.7434 20.1045C69.7434 19.4846 69.6462 18.9193 69.4517 18.4088C69.2694 17.8862 68.9959 17.4364 68.6312 17.0596C68.2787 16.6706 67.8533 16.3728 67.3549 16.1662C66.8566 15.9596 66.2914 15.8563 65.6593 15.8563C65.0272 15.8563 64.462 15.9596 63.9636 16.1662C63.4653 16.3728 63.0338 16.6706 62.6691 17.0596C62.3166 17.4364 62.0492 17.8862 61.8669 18.4088C61.6846 18.9193 61.5934 19.4846 61.5934 20.1045C61.5934 20.6879 61.6846 21.2349 61.8669 21.7454C62.0492 22.2559 62.3166 22.7057 62.6691 23.0946C63.0338 23.4836 63.4653 23.7875 63.9636 24.0063C64.462 24.2251 65.0272 24.3345 65.6593 24.3345Z"
      fill="url(#paint2_radial_20_126)" />
    <path
      d="M76.9738 26.7776L73.6919 13.4678H76.7733L79.3441 24.772L78.7059 24.3527H80.3651L79.654 24.772L81.6414 13.9601H84.121L81.5138 26.7776H76.9738ZM84.905 26.7776L82.0972 13.9601H84.7045L87.0018 24.772L86.3089 24.3527H87.8952L87.2935 24.772L89.5361 13.4678H92.4534L89.5361 26.7776H84.905Z"
      fill="url(#paint3_radial_20_126)" />
    <path
      d="M94.3366 26.7776V13.4678H97.2538V26.7776H94.3366ZM96.8892 26.7776V24.298H102.705V26.7776H96.8892ZM96.8892 21.2531V18.7735H102.286V21.2531H96.8892ZM96.8892 15.9474V13.4678H102.578V15.9474H96.8892Z"
      fill="url(#paint4_radial_20_126)" />
    <path
      d="M105.162 26.7776V13.3584H108.152V26.7776H105.162ZM113.239 26.7776L109.338 21.0526H112.619L116.704 26.7776H113.239ZM107.35 22.5112V20.1592H110.632C111.07 20.1592 111.446 20.0741 111.762 19.9039C112.091 19.7216 112.34 19.4724 112.51 19.1564C112.692 18.8282 112.784 18.4514 112.784 18.0259C112.784 17.6005 112.692 17.2298 112.51 16.9137C112.34 16.5856 112.091 16.3364 111.762 16.1662C111.446 15.9839 111.07 15.8927 110.632 15.8927H107.35V13.3584H110.395C111.501 13.3584 112.461 13.5285 113.276 13.8689C114.09 14.1971 114.716 14.6894 115.154 15.3457C115.591 16.0021 115.81 16.8287 115.81 17.8254V18.1171C115.81 19.1017 115.585 19.9221 115.136 20.5785C114.698 21.2227 114.072 21.7089 113.258 22.0371C112.455 22.3532 111.501 22.5112 110.395 22.5112H107.35Z"
      fill="url(#paint5_radial_20_126)" />
    <path d="M120.768 26.7776V15.7104H123.758V26.7776H120.768ZM117.031 16.075V13.4678H127.514V16.075H117.031Z"
      fill="url(#paint6_radial_20_126)" />
    <path
      d="M132.036 21.7272L128.153 13.4678H131.216L134.005 19.6487L133.476 19.4846H135.008L134.443 19.6487L136.959 13.4678H139.858L136.284 21.7272H132.036ZM132.692 26.7776V21.3078H135.628V26.7776H132.692Z"
      fill="url(#paint7_radial_20_126)" />
    <path
      d="M58.6549 42.7312V34.9671H60.3566V42.7312H58.6549ZM60.1439 42.7312V41.2848H63.5367V42.7312H60.1439ZM60.1439 39.5086V38.0621H63.2921V39.5086H60.1439ZM60.1439 36.4136V34.9671H63.4623V36.4136H60.1439Z"
      fill="url(#paint8_radial_20_126)" />
    <path
      d="M66.9056 42.7312L69.5539 38.5939L69.5751 38.7747L67.1289 34.9671H69.0434L70.5536 37.3921H70.7982L72.2872 34.9671H74.1485L71.6916 38.796L71.6597 38.6258L74.3931 42.7312H72.4681L70.7025 39.9872H70.4473L68.7668 42.7312H66.9056Z"
      fill="url(#paint9_radial_20_126)" />
    <path
      d="M81.3003 42.9333C80.5983 42.9333 79.9956 42.8128 79.4922 42.5717C78.9888 42.3235 78.5775 42.0009 78.2585 41.6039C77.9394 41.1997 77.7019 40.7672 77.5459 40.3063C77.397 39.8383 77.3225 39.3845 77.3225 38.9449V38.7109C77.3225 38.2288 77.4005 37.7537 77.5565 37.2857C77.7125 36.8107 77.95 36.3817 78.2691 35.9988C78.5953 35.6159 79.003 35.311 79.4922 35.0841C79.9885 34.8502 80.5735 34.7332 81.2471 34.7332C81.9491 34.7332 82.5695 34.8643 83.1084 35.1267C83.6472 35.389 84.0762 35.7542 84.3953 36.2222C84.7214 36.683 84.9129 37.2255 84.9696 37.8494H83.2147C83.1651 37.5375 83.0516 37.2716 82.8744 37.0518C82.6971 36.8319 82.4667 36.6618 82.1831 36.5412C81.9065 36.4207 81.5945 36.3604 81.2471 36.3604C80.8997 36.3604 80.5912 36.4207 80.3218 36.5412C80.0524 36.6618 79.8255 36.8319 79.6411 37.0518C79.4638 37.2716 79.3256 37.5339 79.2263 37.8388C79.1341 38.1366 79.0881 38.4699 79.0881 38.8386C79.0881 39.2002 79.1341 39.5334 79.2263 39.8383C79.3256 40.1361 79.4674 40.3985 79.6517 40.6254C79.8432 40.8452 80.0772 41.0153 80.3537 41.1359C80.6302 41.2493 80.9458 41.306 81.3003 41.306C81.8392 41.306 82.293 41.1749 82.6617 40.9125C83.0375 40.6502 83.2644 40.2886 83.3424 39.8277H85.0866C85.0228 40.3949 84.8314 40.9161 84.5123 41.3911C84.2003 41.8591 83.7713 42.2349 83.2254 42.5185C82.6865 42.795 82.0448 42.9333 81.3003 42.9333Z"
      fill="url(#paint10_radial_20_126)" />
    <path
      d="M93.976 42.7312V34.9671H95.7203V42.7312H93.976ZM88.9559 42.7312V34.9671H90.7002V42.7312H88.9559ZM90.3918 39.5937V38.0621H94.2844V39.5937H90.3918Z"
      fill="url(#paint11_radial_20_126)" />
    <path
      d="M99.4407 42.7312L102.004 34.9671H104.822L107.481 42.7312H105.673L103.525 36.169L104.078 36.3923H102.706L103.28 36.169L101.185 42.7312H99.4407ZM101.387 40.8062L101.919 39.3597H104.961L105.503 40.8062H101.387Z"
      fill="url(#paint12_radial_20_126)" />
    <path
      d="M111.206 42.7312V34.9671H114.067L116.992 41.3167H117.354L117.141 41.5081V34.9671H118.779V42.7312H115.897L112.972 36.3817H112.61L112.823 36.1903V42.7312H111.206Z"
      fill="url(#paint13_radial_20_126)" />
    <path
      d="M126.915 42.9333C126.22 42.9333 125.614 42.8199 125.096 42.593C124.579 42.359 124.15 42.047 123.809 41.657C123.476 41.2671 123.228 40.8345 123.065 40.3595C122.902 39.8844 122.82 39.4093 122.82 38.9343V38.7003C122.82 38.2111 122.902 37.7324 123.065 37.2645C123.228 36.7965 123.473 36.3711 123.799 35.9882C124.132 35.6053 124.543 35.3004 125.032 35.0735C125.529 34.8466 126.1 34.7332 126.745 34.7332C127.447 34.7332 128.067 34.8643 128.606 35.1267C129.145 35.3819 129.577 35.74 129.904 36.2009C130.23 36.6547 130.418 37.1829 130.467 37.7856H128.723C128.68 37.502 128.567 37.2538 128.383 37.0411C128.205 36.8284 127.975 36.6618 127.691 36.5412C127.415 36.4207 127.099 36.3604 126.745 36.3604C126.404 36.3604 126.1 36.4207 125.83 36.5412C125.568 36.6618 125.341 36.8319 125.149 37.0518C124.965 37.2716 124.823 37.5339 124.724 37.8388C124.632 38.1366 124.586 38.4663 124.586 38.8279C124.586 39.2037 124.635 39.5476 124.735 39.8596C124.841 40.1645 124.993 40.4304 125.192 40.6573C125.391 40.8771 125.635 41.0472 125.926 41.1678C126.224 41.2883 126.553 41.3486 126.915 41.3486C127.397 41.3486 127.815 41.2493 128.17 41.0508C128.524 40.8523 128.78 40.5899 128.936 40.2637L128.723 41.4549V39.6043H130.329V41.2635C129.996 41.8024 129.535 42.2172 128.946 42.5079C128.365 42.7915 127.688 42.9333 126.915 42.9333ZM126.692 39.9447V38.6897H130.967V39.9447H126.692Z"
      fill="url(#paint14_radial_20_126)" />
    <path
      d="M134.807 42.7312V34.9671H136.508V42.7312H134.807ZM136.296 42.7312V41.2848H139.689V42.7312H136.296ZM136.296 39.5086V38.0621H139.444V39.5086H136.296ZM136.296 36.4136V34.9671H139.614V36.4136H136.296Z"
      fill="url(#paint15_radial_20_126)" />
    <defs>
      <filter id="filter0_f_20_126" x="0.595185" y="0.57016" width="55.0596" height="54.8596"
        filterUnits="userSpaceOnUse" color-interpolation-filters="sRGB">
        <feFlood flood-opacity="0" result="BackgroundImageFix" />
        <feBlend mode="normal" in="SourceGraphic" in2="BackgroundImageFix" result="shape" />
        <feGaussianBlur stdDeviation="2.51491" result="effect1_foregroundBlur_20_126" />
      </filter>
      <radialGradient id="paint0_radial_20_126" cx="0" cy="0" r="1" gradientUnits="userSpaceOnUse"
        gradientTransform="translate(12.7841 12.9818) rotate(44.5412) scale(31.2093 31.2112)">
        <stop stop-color="white" />
        <stop offset="1" stop-color="white" stop-opacity="0" />
      </radialGradient>
      <radialGradient id="paint1_radial_20_126" cx="0" cy="0" r="1" gradientUnits="userSpaceOnUse"
        gradientTransform="translate(40.5814 40.4013) rotate(44.8724) scale(7.82206 7.82198)">
        <stop stop-color="white" />
        <stop offset="1" stop-color="#7A7A7A" />
      </radialGradient>
      <radialGradient id="paint2_radial_20_126" cx="0" cy="0" r="1" gradientUnits="userSpaceOnUse"
        gradientTransform="translate(99.2124 28) rotate(20.1735) scale(43.3021 28.0344)">
        <stop stop-color="white" />
        <stop offset="1" stop-color="#7A7A7A" />
      </radialGradient>
      <radialGradient id="paint3_radial_20_126" cx="0" cy="0" r="1" gradientUnits="userSpaceOnUse"
        gradientTransform="translate(99.2124 28) rotate(20.1735) scale(43.3021 28.0344)">
        <stop stop-color="white" />
        <stop offset="1" stop-color="#7A7A7A" />
      </radialGradient>
      <radialGradient id="paint4_radial_20_126" cx="0" cy="0" r="1" gradientUnits="userSpaceOnUse"
        gradientTransform="translate(99.2124 28) rotate(20.1735) scale(43.3021 28.0344)">
        <stop stop-color="white" />
        <stop offset="1" stop-color="#7A7A7A" />
      </radialGradient>
      <radialGradient id="paint5_radial_20_126" cx="0" cy="0" r="1" gradientUnits="userSpaceOnUse"
        gradientTransform="translate(99.2124 28) rotate(20.1735) scale(43.3021 28.0344)">
        <stop stop-color="white" />
        <stop offset="1" stop-color="#7A7A7A" />
      </radialGradient>
      <radialGradient id="paint6_radial_20_126" cx="0" cy="0" r="1" gradientUnits="userSpaceOnUse"
        gradientTransform="translate(99.2124 28) rotate(20.1735) scale(43.3021 28.0344)">
        <stop stop-color="white" />
        <stop offset="1" stop-color="#7A7A7A" />
      </radialGradient>
      <radialGradient id="paint7_radial_20_126" cx="0" cy="0" r="1" gradientUnits="userSpaceOnUse"
        gradientTransform="translate(99.2124 28) rotate(20.1735) scale(43.3021 28.0344)">
        <stop stop-color="white" />
        <stop offset="1" stop-color="#7A7A7A" />
      </radialGradient>
      <radialGradient id="paint8_radial_20_126" cx="0" cy="0" r="1" gradientUnits="userSpaceOnUse"
        gradientTransform="translate(99.2124 28) rotate(20.1735) scale(43.3021 28.0344)">
        <stop stop-color="white" />
        <stop offset="1" stop-color="#7A7A7A" />
      </radialGradient>
      <radialGradient id="paint9_radial_20_126" cx="0" cy="0" r="1" gradientUnits="userSpaceOnUse"
        gradientTransform="translate(99.2124 28) rotate(20.1735) scale(43.3021 28.0344)">
        <stop stop-color="white" />
        <stop offset="1" stop-color="#7A7A7A" />
      </radialGradient>
      <radialGradient id="paint10_radial_20_126" cx="0" cy="0" r="1" gradientUnits="userSpaceOnUse"
        gradientTransform="translate(99.2124 28) rotate(20.1735) scale(43.3021 28.0344)">
        <stop stop-color="white" />
        <stop offset="1" stop-color="#7A7A7A" />
      </radialGradient>
      <radialGradient id="paint11_radial_20_126" cx="0" cy="0" r="1" gradientUnits="userSpaceOnUse"
        gradientTransform="translate(99.2124 28) rotate(20.1735) scale(43.3021 28.0344)">
        <stop stop-color="white" />
        <stop offset="1" stop-color="#7A7A7A" />
      </radialGradient>
      <radialGradient id="paint12_radial_20_126" cx="0" cy="0" r="1" gradientUnits="userSpaceOnUse"
        gradientTransform="translate(99.2124 28) rotate(20.1735) scale(43.3021 28.0344)">
        <stop stop-color="white" />
        <stop offset="1" stop-color="#7A7A7A" />
      </radialGradient>
      <radialGradient id="paint13_radial_20_126" cx="0" cy="0" r="1" gradientUnits="userSpaceOnUse"
        gradientTransform="translate(99.2124 28) rotate(20.1735) scale(43.3021 28.0344)">
        <stop stop-color="white" />
        <stop offset="1" stop-color="#7A7A7A" />
      </radialGradient>
      <radialGradient id="paint14_radial_20_126" cx="0" cy="0" r="1" gradientUnits="userSpaceOnUse"
        gradientTransform="translate(99.2124 28) rotate(20.1735) scale(43.3021 28.0344)">
        <stop stop-color="white" />
        <stop offset="1" stop-color="#7A7A7A" />
      </radialGradient>
      <radialGradient id="paint15_radial_20_126" cx="0" cy="0" r="1" gradientUnits="userSpaceOnUse"
        gradientTransform="translate(99.2124 28) rotate(20.1735) scale(43.3021 28.0344)">
        <stop stop-color="white" />
        <stop offset="1" stop-color="#7A7A7A" />
      </radialGradient>
      <clipPath id="clip0_20_126">
        <rect width="36" height="35.84" fill="white" transform="translate(10.1249 10.08)" />
      </clipPath>
    </defs>
  </svg>
